<svg id="visual" viewBox="0 0 960 540" width="960" height="540" xmlns="http://www.w3.org/2000/svg" xmlns:xlink="http://www.w3.org/1999/xlink" version="1.1"><rect width="960" height="540" fill="#f8f5f6"></rect><g><g transform="translate(400 42)"><path d="M0 -55.9L48.4 -28L48.4 28L0 55.9L-48.4 28L-48.4 -28Z" fill="#000088"></path></g><g transform="translate(65 231)"><path d="M0 -30L26 -15L26 15L0 30L-26 15L-26 -15Z" fill="#000088"></path></g><g transform="translate(398 348)"><path d="M0 -37L32 -18.5L32 18.5L0 37L-32 18.5L-32 -18.5Z" fill="#000088"></path></g><g transform="translate(114 15)"><path d="M0 -40L34.6 -20L34.6 20L0 40L-34.6 20L-34.6 -20Z" fill="#000088"></path></g><g transform="translate(672 397)"><path d="M0 -42L36.4 -21L36.4 21L0 42L-36.4 21L-36.4 -21Z" fill="#000088"></path></g><g transform="translate(458 180)"><path d="M0 -42L36.4 -21L36.4 21L0 42L-36.4 21L-36.4 -21Z" fill="#000088"></path></g><g transform="translate(767 92)"><path d="M0 -39L33.8 -19.5L33.8 19.5L0 39L-33.8 19.5L-33.8 -19.5Z" fill="#000088"></path></g><g transform="translate(275 266)"><path d="M0 -53L45.9 -26.5L45.9 26.5L0 53L-45.9 26.5L-45.9 -26.5Z" fill="#000088"></path></g><g transform="translate(532 10)"><path d="M0 -43L37.2 -21.5L37.2 21.5L0 43L-37.2 21.5L-37.2 -21.5Z" fill="#000088"></path></g><g transform="translate(820 214)"><path d="M0 -32L27.7 -16L27.7 16L0 32L-27.7 16L-27.7 -16Z" fill="#000088"></path></g><g transform="translate(8 99)"><path d="M0 -53L45.9 -26.5L45.9 26.5L0 53L-45.9 26.5L-45.9 -26.5Z" fill="#000088"></path></g></g></svg>