<svg id="visual" viewBox="0 0 900 600" width="900" height="600" xmlns="http://www.w3.org/2000/svg" xmlns:xlink="http://www.w3.org/1999/xlink" version="1.1"><rect x="0" y="0" width="900" height="600" fill="#f7f6f6"></rect><path d="M0 364L21.5 374C43 384 86 404 128.8 409C171.7 414 214.3 404 257.2 403.7C300 403.3 343 412.7 385.8 405.8C428.7 399 471.3 376 514.2 367.3C557 358.7 600 364.3 642.8 373.5C685.7 382.7 728.3 395.3 771.2 403.5C814 411.7 857 415.3 878.5 417.2L900 419L900 601L878.5 601C857 601 814 601 771.2 601C728.3 601 685.7 601 642.8 601C600 601 557 601 514.2 601C471.3 601 428.7 601 385.8 601C343 601 300 601 257.2 601C214.3 601 171.7 601 128.8 601C86 601 43 601 21.5 601L0 601Z" fill="#113c3d"></path><path d="M0 444L21.5 441.3C43 438.7 86 433.3 128.8 429.2C171.7 425 214.3 422 257.2 422.5C300 423 343 427 385.8 423C428.7 419 471.3 407 514.2 400.8C557 394.7 600 394.3 642.8 400.7C685.7 407 728.3 420 771.2 431C814 442 857 451 878.5 455.5L900 460L900 601L878.5 601C857 601 814 601 771.2 601C728.3 601 685.7 601 642.8 601C600 601 557 601 514.2 601C471.3 601 428.7 601 385.8 601C343 601 300 601 257.2 601C214.3 601 171.7 601 128.8 601C86 601 43 601 21.5 601L0 601Z" fill="#0f3333"></path><path d="M0 511L21.5 498.7C43 486.3 86 461.7 128.8 451.7C171.7 441.7 214.3 446.3 257.2 447.3C300 448.3 343 445.7 385.8 455C428.7 464.3 471.3 485.7 514.2 495.3C557 505 600 503 642.8 494.7C685.7 486.3 728.3 471.7 771.2 469.3C814 467 857 477 878.5 482L900 487L900 601L878.5 601C857 601 814 601 771.2 601C728.3 601 685.7 601 642.8 601C600 601 557 601 514.2 601C471.3 601 428.7 601 385.8 601C343 601 300 601 257.2 601C214.3 601 171.7 601 128.8 601C86 601 43 601 21.5 601L0 601Z" fill="#0c2a2a"></path><path d="M0 491L21.5 492.7C43 494.3 86 497.7 128.8 502.2C171.7 506.7 214.3 512.3 257.2 514.8C300 517.3 343 516.7 385.8 514.3C428.7 512 471.3 508 514.2 510.2C557 512.3 600 520.7 642.8 522.7C685.7 524.7 728.3 520.3 771.2 512.5C814 504.7 857 493.3 878.5 487.7L900 482L900 601L878.5 601C857 601 814 601 771.2 601C728.3 601 685.7 601 642.8 601C600 601 557 601 514.2 601C471.3 601 428.7 601 385.8 601C343 601 300 601 257.2 601C214.3 601 171.7 601 128.8 601C86 601 43 601 21.5 601L0 601Z" fill="#092121"></path><path d="M0 569L21.5 568.5C43 568 86 567 128.8 564C171.7 561 214.3 556 257.2 549.5C300 543 343 535 385.8 538.8C428.7 542.7 471.3 558.3 514.2 558.8C557 559.3 600 544.7 642.8 539.5C685.7 534.3 728.3 538.7 771.2 542.8C814 547 857 551 878.5 553L900 555L900 601L878.5 601C857 601 814 601 771.2 601C728.3 601 685.7 601 642.8 601C600 601 557 601 514.2 601C471.3 601 428.7 601 385.8 601C343 601 300 601 257.2 601C214.3 601 171.7 601 128.8 601C86 601 43 601 21.5 601L0 601Z" fill="#041919"></path></svg>