<svg id="visual" viewBox="0 0 960 540" width="960" height="540" xmlns="http://www.w3.org/2000/svg" xmlns:xlink="http://www.w3.org/1999/xlink" version="1.1"><path d="M0 361L20 356.3C40 351.7 80 342.3 120 337.8C160 333.3 200 333.7 240 338.3C280 343 320 352 360 356.8C400 361.7 440 362.3 480 356.7C520 351 560 339 600 344.3C640 349.7 680 372.3 720 378C760 383.7 800 372.3 840 371.2C880 370 920 379 940 383.5L960 388L960 541L940 541C920 541 880 541 840 541C800 541 760 541 720 541C680 541 640 541 600 541C560 541 520 541 480 541C440 541 400 541 360 541C320 541 280 541 240 541C200 541 160 541 120 541C80 541 40 541 20 541L0 541Z" fill="#000088"></path><path d="M0 399L20 402.3C40 405.7 80 412.3 120 411.8C160 411.3 200 403.7 240 398.8C280 394 320 392 360 391.3C400 390.7 440 391.3 480 396.3C520 401.3 560 410.7 600 407.2C640 403.7 680 387.3 720 384.2C760 381 800 391 840 391.5C880 392 920 383 940 378.5L960 374L960 541L940 541C920 541 880 541 840 541C800 541 760 541 720 541C680 541 640 541 600 541C560 541 520 541 480 541C440 541 400 541 360 541C320 541 280 541 240 541C200 541 160 541 120 541C80 541 40 541 20 541L0 541Z" fill="#000872"></path><path d="M0 400L20 408C40 416 80 432 120 438.3C160 444.7 200 441.3 240 437.3C280 433.3 320 428.7 360 430.5C400 432.3 440 440.7 480 437.5C520 434.3 560 419.7 600 417.3C640 415 680 425 720 425.3C760 425.7 800 416.3 840 419C880 421.7 920 436.3 940 443.7L960 451L960 541L940 541C920 541 880 541 840 541C800 541 760 541 720 541C680 541 640 541 600 541C560 541 520 541 480 541C440 541 400 541 360 541C320 541 280 541 240 541C200 541 160 541 120 541C80 541 40 541 20 541L0 541Z" fill="#000b5d"></path><path d="M0 456L20 456C40 456 80 456 120 454.3C160 452.7 200 449.3 240 452.7C280 456 320 466 360 468C400 470 440 464 480 459.2C520 454.3 560 450.7 600 453.8C640 457 680 467 720 470.2C760 473.3 800 469.7 840 464.8C880 460 920 454 940 451L960 448L960 541L940 541C920 541 880 541 840 541C800 541 760 541 720 541C680 541 640 541 600 541C560 541 520 541 480 541C440 541 400 541 360 541C320 541 280 541 240 541C200 541 160 541 120 541C80 541 40 541 20 541L0 541Z" fill="#000948"></path><path d="M0 484L20 486C40 488 80 492 120 493.5C160 495 200 494 240 491.7C280 489.3 320 485.7 360 488.5C400 491.3 440 500.7 480 505C520 509.3 560 508.7 600 507.3C640 506 680 504 720 499.5C760 495 800 488 840 486.2C880 484.3 920 487.7 940 489.3L960 491L960 541L940 541C920 541 880 541 840 541C800 541 760 541 720 541C680 541 640 541 600 541C560 541 520 541 480 541C440 541 400 541 360 541C320 541 280 541 240 541C200 541 160 541 120 541C80 541 40 541 20 541L0 541Z" fill="#000033"></path></svg>