<svg id="visual" viewBox="0 0 960 540" width="960" height="540" xmlns="http://www.w3.org/2000/svg" xmlns:xlink="http://www.w3.org/1999/xlink" version="1.1"><rect x="0" y="0" width="960" height="540" fill="#f8f5f6"></rect><path d="M0 368L22.8 365.7C45.7 363.3 91.3 358.7 137 353.7C182.7 348.7 228.3 343.3 274 337.2C319.7 331 365.3 324 411.2 324.3C457 324.7 503 332.3 548.8 335.8C594.7 339.3 640.3 338.7 686 336.7C731.7 334.7 777.3 331.3 823 330.7C868.7 330 914.3 332 937.2 333L960 334L960 541L937.2 541C914.3 541 868.7 541 823 541C777.3 541 731.7 541 686 541C640.3 541 594.7 541 548.8 541C503 541 457 541 411.2 541C365.3 541 319.7 541 274 541C228.3 541 182.7 541 137 541C91.3 541 45.7 541 22.8 541L0 541Z" fill="#000088"></path><path d="M0 421L22.8 413.2C45.7 405.3 91.3 389.7 137 380.2C182.7 370.7 228.3 367.3 274 371.8C319.7 376.3 365.3 388.7 411.2 392.8C457 397 503 393 548.8 390.3C594.7 387.7 640.3 386.3 686 381.5C731.7 376.7 777.3 368.3 823 376C868.7 383.7 914.3 407.3 937.2 419.2L960 431L960 541L937.2 541C914.3 541 868.7 541 823 541C777.3 541 731.7 541 686 541C640.3 541 594.7 541 548.8 541C503 541 457 541 411.2 541C365.3 541 319.7 541 274 541C228.3 541 182.7 541 137 541C91.3 541 45.7 541 22.8 541L0 541Z" fill="#0604a4"></path><path d="M0 421L22.8 421C45.7 421 91.3 421 137 422.2C182.7 423.3 228.3 425.7 274 431.3C319.7 437 365.3 446 411.2 445.8C457 445.7 503 436.3 548.8 432.7C594.7 429 640.3 431 686 430C731.7 429 777.3 425 823 419.8C868.7 414.7 914.3 408.3 937.2 405.2L960 402L960 541L937.2 541C914.3 541 868.7 541 823 541C777.3 541 731.7 541 686 541C640.3 541 594.7 541 548.8 541C503 541 457 541 411.2 541C365.3 541 319.7 541 274 541C228.3 541 182.7 541 137 541C91.3 541 45.7 541 22.8 541L0 541Z" fill="#0e0ac2"></path><path d="M0 481L22.8 479C45.7 477 91.3 473 137 466.3C182.7 459.7 228.3 450.3 274 450.7C319.7 451 365.3 461 411.2 462.7C457 464.3 503 457.7 548.8 460.2C594.7 462.7 640.3 474.3 686 473.2C731.7 472 777.3 458 823 455C868.7 452 914.3 460 937.2 464L960 468L960 541L937.2 541C914.3 541 868.7 541 823 541C777.3 541 731.7 541 686 541C640.3 541 594.7 541 548.8 541C503 541 457 541 411.2 541C365.3 541 319.7 541 274 541C228.3 541 182.7 541 137 541C91.3 541 45.7 541 22.8 541L0 541Z" fill="#1512e0"></path><path d="M0 477L22.8 480C45.7 483 91.3 489 137 488.3C182.7 487.7 228.3 480.3 274 479.7C319.7 479 365.3 485 411.2 492.2C457 499.3 503 507.7 548.8 505.7C594.7 503.7 640.3 491.3 686 485.3C731.7 479.3 777.3 479.7 823 478.7C868.7 477.7 914.3 475.3 937.2 474.2L960 473L960 541L937.2 541C914.3 541 868.7 541 823 541C777.3 541 731.7 541 686 541C640.3 541 594.7 541 548.8 541C503 541 457 541 411.2 541C365.3 541 319.7 541 274 541C228.3 541 182.7 541 137 541C91.3 541 45.7 541 22.8 541L0 541Z" fill="#1a1aff"></path></svg>