<svg id="visual" viewBox="0 0 900 600" width="900" height="600" xmlns="http://www.w3.org/2000/svg" xmlns:xlink="http://www.w3.org/1999/xlink" version="1.1"><rect x="0" y="0" width="900" height="600" fill="#f7f6f6"></rect><path d="M0 385L18.8 391C37.7 397 75.3 409 112.8 407.2C150.3 405.3 187.7 389.7 225.2 383.2C262.7 376.7 300.3 379.3 337.8 388.2C375.3 397 412.7 412 450.2 415.2C487.7 418.3 525.3 409.7 562.8 404.8C600.3 400 637.7 399 675.2 400.3C712.7 401.7 750.3 405.3 787.8 402C825.3 398.7 862.7 388.3 881.3 383.2L900 378L900 601L881.3 601C862.7 601 825.3 601 787.8 601C750.3 601 712.7 601 675.2 601C637.7 601 600.3 601 562.8 601C525.3 601 487.7 601 450.2 601C412.7 601 375.3 601 337.8 601C300.3 601 262.7 601 225.2 601C187.7 601 150.3 601 112.8 601C75.3 601 37.7 601 18.8 601L0 601Z" fill="#113c3d"></path><path d="M0 466L18.8 461.5C37.7 457 75.3 448 112.8 448.2C150.3 448.3 187.7 457.7 225.2 464.3C262.7 471 300.3 475 337.8 476C375.3 477 412.7 475 450.2 475.7C487.7 476.3 525.3 479.7 562.8 479.5C600.3 479.3 637.7 475.7 675.2 468C712.7 460.3 750.3 448.7 787.8 445.2C825.3 441.7 862.7 446.3 881.3 448.7L900 451L900 601L881.3 601C862.7 601 825.3 601 787.8 601C750.3 601 712.7 601 675.2 601C637.7 601 600.3 601 562.8 601C525.3 601 487.7 601 450.2 601C412.7 601 375.3 601 337.8 601C300.3 601 262.7 601 225.2 601C187.7 601 150.3 601 112.8 601C75.3 601 37.7 601 18.8 601L0 601Z" fill="#0a2a2a"></path><path d="M0 546L18.8 544.2C37.7 542.3 75.3 538.7 112.8 538.3C150.3 538 187.7 541 225.2 536C262.7 531 300.3 518 337.8 516.7C375.3 515.3 412.7 525.7 450.2 526.7C487.7 527.7 525.3 519.3 562.8 514.2C600.3 509 637.7 507 675.2 506.5C712.7 506 750.3 507 787.8 507.3C825.3 507.7 862.7 507.3 881.3 507.2L900 507L900 601L881.3 601C862.7 601 825.3 601 787.8 601C750.3 601 712.7 601 675.2 601C637.7 601 600.3 601 562.8 601C525.3 601 487.7 601 450.2 601C412.7 601 375.3 601 337.8 601C300.3 601 262.7 601 225.2 601C187.7 601 150.3 601 112.8 601C75.3 601 37.7 601 18.8 601L0 601Z" fill="#011919"></path></svg>